<mxfile host="65bd71144e">
    <diagram id="lGCFQGRZhw7MTTtFVWTq" name="Page-1">
        <mxGraphModel dx="1842" dy="1607" grid="1" gridSize="10" guides="1" tooltips="1" connect="1" arrows="1" fold="1" page="1" pageScale="1" pageWidth="850" pageHeight="1100" math="0" shadow="0">
            <root>
                <mxCell id="0"/>
                <mxCell id="1" parent="0"/>
                <mxCell id="37" value="USER" style="swimlane;fontStyle=0;align=center;verticalAlign=top;childLayout=stackLayout;horizontal=1;startSize=55;horizontalStack=0;resizeParent=1;resizeParentMax=0;resizeLast=0;collapsible=0;marginBottom=0;html=1;rounded=0;strokeColor=default;strokeWidth=1;" parent="1" vertex="1">
                    <mxGeometry x="240" y="-550" width="160" height="175" as="geometry"/>
                </mxCell>
                <mxCell id="48" value="- 1" style="text;html=1;strokeColor=none;fillColor=none;align=left;verticalAlign=middle;spacingLeft=4;spacingRight=4;overflow=hidden;rotatable=0;points=[[0,0.5],[1,0.5]];portConstraint=eastwest;rounded=0;strokeWidth=1;" parent="37" vertex="1">
                    <mxGeometry y="55" width="160" height="20" as="geometry"/>
                </mxCell>
                <mxCell id="53" value="- 01/01/2024" style="text;html=1;strokeColor=none;fillColor=none;align=left;verticalAlign=middle;spacingLeft=4;spacingRight=4;overflow=hidden;rotatable=0;points=[[0,0.5],[1,0.5]];portConstraint=eastwest;rounded=0;strokeWidth=1;" parent="37" vertex="1">
                    <mxGeometry y="75" width="160" height="20" as="geometry"/>
                </mxCell>
                <mxCell id="97" value="- null" style="text;html=1;strokeColor=none;fillColor=none;align=left;verticalAlign=middle;spacingLeft=4;spacingRight=4;overflow=hidden;rotatable=0;points=[[0,0.5],[1,0.5]];portConstraint=eastwest;rounded=0;strokeWidth=1;" parent="37" vertex="1">
                    <mxGeometry y="95" width="160" height="20" as="geometry"/>
                </mxCell>
                <mxCell id="56" value="- Fulano Silva" style="text;html=1;strokeColor=none;fillColor=none;align=left;verticalAlign=middle;spacingLeft=4;spacingRight=4;overflow=hidden;rotatable=0;points=[[0,0.5],[1,0.5]];portConstraint=eastwest;rounded=0;strokeWidth=1;" parent="37" vertex="1">
                    <mxGeometry y="115" width="160" height="20" as="geometry"/>
                </mxCell>
                <mxCell id="55" value="- fulano@gmail.com" style="text;html=1;strokeColor=none;fillColor=none;align=left;verticalAlign=middle;spacingLeft=4;spacingRight=4;overflow=hidden;rotatable=0;points=[[0,0.5],[1,0.5]];portConstraint=eastwest;rounded=0;strokeWidth=1;" parent="37" vertex="1">
                    <mxGeometry y="135" width="160" height="20" as="geometry"/>
                </mxCell>
                <mxCell id="54" value="-&amp;nbsp;e8d95a51f3af4a3b134bf" style="text;html=1;strokeColor=none;fillColor=none;align=left;verticalAlign=middle;spacingLeft=4;spacingRight=4;overflow=hidden;rotatable=0;points=[[0,0.5],[1,0.5]];portConstraint=eastwest;rounded=0;strokeWidth=1;" parent="37" vertex="1">
                    <mxGeometry y="155" width="160" height="20" as="geometry"/>
                </mxCell>
                <mxCell id="103" style="edgeStyle=none;html=1;entryX=0;entryY=0.75;entryDx=0;entryDy=0;strokeColor=default;endArrow=none;endFill=0;exitX=0.5;exitY=0;exitDx=0;exitDy=0;entryPerimeter=0;" parent="1" source="49" target="97" edge="1">
                    <mxGeometry relative="1" as="geometry">
                        <Array as="points">
                            <mxPoint x="70" y="-440"/>
                        </Array>
                    </mxGeometry>
                </mxCell>
                <mxCell id="109" value="N" style="edgeLabel;html=1;align=center;verticalAlign=middle;resizable=0;points=[];" parent="103" vertex="1" connectable="0">
                    <mxGeometry x="-0.7618" y="1" relative="1" as="geometry">
                        <mxPoint y="5" as="offset"/>
                    </mxGeometry>
                </mxCell>
                <mxCell id="110" value="1" style="edgeLabel;html=1;align=center;verticalAlign=middle;resizable=0;points=[];" parent="103" vertex="1" connectable="0">
                    <mxGeometry x="0.5358" y="-1" relative="1" as="geometry">
                        <mxPoint x="-9" as="offset"/>
                    </mxGeometry>
                </mxCell>
                <mxCell id="49" value="SLEEP" style="swimlane;fontStyle=0;align=center;verticalAlign=top;childLayout=stackLayout;horizontal=1;startSize=55;horizontalStack=0;resizeParent=1;resizeParentMax=0;resizeLast=0;collapsible=0;marginBottom=0;html=1;rounded=0;strokeColor=default;strokeWidth=1;" parent="1" vertex="1">
                    <mxGeometry x="-20" y="-400" width="180" height="275" as="geometry"/>
                </mxCell>
                <mxCell id="50" value="- 1" style="text;html=1;strokeColor=none;fillColor=none;align=left;verticalAlign=middle;spacingLeft=4;spacingRight=4;overflow=hidden;rotatable=0;points=[[0,0.5],[1,0.5]];portConstraint=eastwest;rounded=0;strokeWidth=1;" parent="49" vertex="1">
                    <mxGeometry y="55" width="180" height="20" as="geometry"/>
                </mxCell>
                <mxCell id="61" value="- 01/01/2024" style="text;html=1;strokeColor=none;fillColor=none;align=left;verticalAlign=middle;spacingLeft=4;spacingRight=4;overflow=hidden;rotatable=0;points=[[0,0.5],[1,0.5]];portConstraint=eastwest;rounded=0;strokeWidth=1;" parent="49" vertex="1">
                    <mxGeometry y="75" width="180" height="20" as="geometry"/>
                </mxCell>
                <mxCell id="99" value="- null" style="text;html=1;strokeColor=none;fillColor=none;align=left;verticalAlign=middle;spacingLeft=4;spacingRight=4;overflow=hidden;rotatable=0;points=[[0,0.5],[1,0.5]];portConstraint=eastwest;rounded=0;strokeWidth=1;" parent="49" vertex="1">
                    <mxGeometry y="95" width="180" height="20" as="geometry"/>
                </mxCell>
                <mxCell id="68" value="- [ ... ]" style="text;html=1;strokeColor=none;fillColor=none;align=left;verticalAlign=middle;spacingLeft=4;spacingRight=4;overflow=hidden;rotatable=0;points=[[0,0.5],[1,0.5]];portConstraint=eastwest;rounded=0;strokeWidth=1;" parent="49" vertex="1">
                    <mxGeometry y="115" width="180" height="20" as="geometry"/>
                </mxCell>
                <mxCell id="67" value="- 01/01/2024" style="text;html=1;strokeColor=none;fillColor=none;align=left;verticalAlign=middle;spacingLeft=4;spacingRight=4;overflow=hidden;rotatable=0;points=[[0,0.5],[1,0.5]];portConstraint=eastwest;rounded=0;strokeWidth=1;" parent="49" vertex="1">
                    <mxGeometry y="135" width="180" height="20" as="geometry"/>
                </mxCell>
                <mxCell id="66" value="- 8" style="text;html=1;strokeColor=none;fillColor=none;align=left;verticalAlign=middle;spacingLeft=4;spacingRight=4;overflow=hidden;rotatable=0;points=[[0,0.5],[1,0.5]];portConstraint=eastwest;rounded=0;strokeWidth=1;" parent="49" vertex="1">
                    <mxGeometry y="155" width="180" height="20" as="geometry"/>
                </mxCell>
                <mxCell id="65" value="- 01/01/2024 02:00:00" style="text;html=1;strokeColor=none;fillColor=none;align=left;verticalAlign=middle;spacingLeft=4;spacingRight=4;overflow=hidden;rotatable=0;points=[[0,0.5],[1,0.5]];portConstraint=eastwest;rounded=0;strokeWidth=1;" parent="49" vertex="1">
                    <mxGeometry y="175" width="180" height="20" as="geometry"/>
                </mxCell>
                <mxCell id="64" value="- 01/01/2024 10:00:00" style="text;html=1;strokeColor=none;fillColor=none;align=left;verticalAlign=middle;spacingLeft=4;spacingRight=4;overflow=hidden;rotatable=0;points=[[0,0.5],[1,0.5]];portConstraint=eastwest;rounded=0;strokeWidth=1;" parent="49" vertex="1">
                    <mxGeometry y="195" width="180" height="20" as="geometry"/>
                </mxCell>
                <mxCell id="63" value="- { ... }" style="text;html=1;strokeColor=none;fillColor=none;align=left;verticalAlign=middle;spacingLeft=4;spacingRight=4;overflow=hidden;rotatable=0;points=[[0,0.5],[1,0.5]];portConstraint=eastwest;rounded=0;strokeWidth=1;" parent="49" vertex="1">
                    <mxGeometry y="215" width="180" height="20" as="geometry"/>
                </mxCell>
                <mxCell id="127" value="- { ... }" style="text;html=1;strokeColor=none;fillColor=none;align=left;verticalAlign=middle;spacingLeft=4;spacingRight=4;overflow=hidden;rotatable=0;points=[[0,0.5],[1,0.5]];portConstraint=eastwest;rounded=0;strokeWidth=1;" parent="49" vertex="1">
                    <mxGeometry y="235" width="180" height="20" as="geometry"/>
                </mxCell>
                <mxCell id="62" value="- { ... }" style="text;html=1;strokeColor=none;fillColor=none;align=left;verticalAlign=middle;spacingLeft=4;spacingRight=4;overflow=hidden;rotatable=0;points=[[0,0.5],[1,0.5]];portConstraint=eastwest;rounded=0;strokeWidth=1;" parent="49" vertex="1">
                    <mxGeometry y="255" width="180" height="20" as="geometry"/>
                </mxCell>
                <mxCell id="72" value="DREAM" style="swimlane;fontStyle=0;align=center;verticalAlign=top;childLayout=stackLayout;horizontal=1;startSize=55;horizontalStack=0;resizeParent=1;resizeParentMax=0;resizeLast=0;collapsible=0;marginBottom=0;html=1;rounded=0;strokeColor=default;strokeWidth=1;" parent="1" vertex="1">
                    <mxGeometry x="-280" y="-400" width="160" height="395" as="geometry"/>
                </mxCell>
                <mxCell id="73" value="- 1" style="text;html=1;strokeColor=none;fillColor=none;align=left;verticalAlign=middle;spacingLeft=4;spacingRight=4;overflow=hidden;rotatable=0;points=[[0,0.5],[1,0.5]];portConstraint=eastwest;rounded=0;strokeWidth=1;" parent="72" vertex="1">
                    <mxGeometry y="55" width="160" height="20" as="geometry"/>
                </mxCell>
                <mxCell id="96" value="- 01/01/2024" style="text;html=1;strokeColor=none;fillColor=none;align=left;verticalAlign=middle;spacingLeft=4;spacingRight=4;overflow=hidden;rotatable=0;points=[[0,0.5],[1,0.5]];portConstraint=eastwest;rounded=0;strokeWidth=1;" parent="72" vertex="1">
                    <mxGeometry y="75" width="160" height="20" as="geometry"/>
                </mxCell>
                <mxCell id="86" value="- null" style="text;html=1;strokeColor=none;fillColor=none;align=left;verticalAlign=middle;spacingLeft=4;spacingRight=4;overflow=hidden;rotatable=0;points=[[0,0.5],[1,0.5]];portConstraint=eastwest;rounded=0;strokeWidth=1;" parent="72" vertex="1">
                    <mxGeometry y="95" width="160" height="20" as="geometry"/>
                </mxCell>
                <mxCell id="78" value="- &quot;Primeiro Sonho&quot;" style="text;html=1;strokeColor=none;fillColor=none;align=left;verticalAlign=middle;spacingLeft=4;spacingRight=4;overflow=hidden;rotatable=0;points=[[0,0.5],[1,0.5]];portConstraint=eastwest;rounded=0;strokeWidth=1;" parent="72" vertex="1">
                    <mxGeometry y="115" width="160" height="20" as="geometry"/>
                </mxCell>
                <mxCell id="77" value="- &quot;Estava em tal lugar...&quot;" style="text;html=1;strokeColor=none;fillColor=none;align=left;verticalAlign=middle;spacingLeft=4;spacingRight=4;overflow=hidden;rotatable=0;points=[[0,0.5],[1,0.5]];portConstraint=eastwest;rounded=0;strokeWidth=1;" parent="72" vertex="1">
                    <mxGeometry y="135" width="160" height="20" as="geometry"/>
                </mxCell>
                <mxCell id="76" value="- 1" style="text;html=1;strokeColor=none;fillColor=none;align=left;verticalAlign=middle;spacingLeft=4;spacingRight=4;overflow=hidden;rotatable=0;points=[[0,0.5],[1,0.5]];portConstraint=eastwest;rounded=0;strokeWidth=1;" parent="72" vertex="1">
                    <mxGeometry y="155" width="160" height="20" as="geometry"/>
                </mxCell>
                <mxCell id="84" value="- { ... }" style="text;html=1;strokeColor=none;fillColor=none;align=left;verticalAlign=middle;spacingLeft=4;spacingRight=4;overflow=hidden;rotatable=0;points=[[0,0.5],[1,0.5]];portConstraint=eastwest;rounded=0;strokeWidth=1;" parent="72" vertex="1">
                    <mxGeometry y="175" width="160" height="20" as="geometry"/>
                </mxCell>
                <mxCell id="128" value="- { ... }" style="text;html=1;strokeColor=none;fillColor=none;align=left;verticalAlign=middle;spacingLeft=4;spacingRight=4;overflow=hidden;rotatable=0;points=[[0,0.5],[1,0.5]];portConstraint=eastwest;rounded=0;strokeWidth=1;" parent="72" vertex="1">
                    <mxGeometry y="195" width="160" height="20" as="geometry"/>
                </mxCell>
                <mxCell id="83" value="- { ... }" style="text;html=1;strokeColor=none;fillColor=none;align=left;verticalAlign=middle;spacingLeft=4;spacingRight=4;overflow=hidden;rotatable=0;points=[[0,0.5],[1,0.5]];portConstraint=eastwest;rounded=0;strokeWidth=1;" parent="72" vertex="1">
                    <mxGeometry y="215" width="160" height="20" as="geometry"/>
                </mxCell>
                <mxCell id="82" value="- &quot;medio&quot;" style="text;html=1;strokeColor=none;fillColor=none;align=left;verticalAlign=middle;spacingLeft=4;spacingRight=4;overflow=hidden;rotatable=0;points=[[0,0.5],[1,0.5]];portConstraint=eastwest;rounded=0;strokeWidth=1;" parent="72" vertex="1">
                    <mxGeometry y="235" width="160" height="20" as="geometry"/>
                </mxCell>
                <mxCell id="81" value="- &quot;parcialmente lucido&quot;" style="text;html=1;strokeColor=none;fillColor=none;align=left;verticalAlign=middle;spacingLeft=4;spacingRight=4;overflow=hidden;rotatable=0;points=[[0,0.5],[1,0.5]];portConstraint=eastwest;rounded=0;strokeWidth=1;" parent="72" vertex="1">
                    <mxGeometry y="255" width="160" height="20" as="geometry"/>
                </mxCell>
                <mxCell id="87" value="- &quot;sonho&quot;" style="text;html=1;strokeColor=none;fillColor=none;align=left;verticalAlign=middle;spacingLeft=4;spacingRight=4;overflow=hidden;rotatable=0;points=[[0,0.5],[1,0.5]];portConstraint=eastwest;rounded=0;strokeWidth=1;" parent="72" vertex="1">
                    <mxGeometry y="275" width="160" height="20" as="geometry"/>
                </mxCell>
                <mxCell id="207" value="- &quot;parcialmente real&quot;" style="text;html=1;strokeColor=none;fillColor=none;align=left;verticalAlign=middle;spacingLeft=4;spacingRight=4;overflow=hidden;rotatable=0;points=[[0,0.5],[1,0.5]];portConstraint=eastwest;rounded=0;strokeWidth=1;" parent="72" vertex="1">
                    <mxGeometry y="295" width="160" height="20" as="geometry"/>
                </mxCell>
                <mxCell id="208" value="- FALSE" style="text;html=1;strokeColor=none;fillColor=none;align=left;verticalAlign=middle;spacingLeft=4;spacingRight=4;overflow=hidden;rotatable=0;points=[[0,0.5],[1,0.5]];portConstraint=eastwest;rounded=0;strokeWidth=1;" parent="72" vertex="1">
                    <mxGeometry y="315" width="160" height="20" as="geometry"/>
                </mxCell>
                <mxCell id="123" value="- FALSE" style="text;html=1;strokeColor=none;fillColor=none;align=left;verticalAlign=middle;spacingLeft=4;spacingRight=4;overflow=hidden;rotatable=0;points=[[0,0.5],[1,0.5]];portConstraint=eastwest;rounded=0;strokeWidth=1;" parent="72" vertex="1">
                    <mxGeometry y="335" width="160" height="20" as="geometry"/>
                </mxCell>
                <mxCell id="209" value="- &quot;Acho que significa...&quot;" style="text;html=1;strokeColor=none;fillColor=none;align=left;verticalAlign=middle;spacingLeft=4;spacingRight=4;overflow=hidden;rotatable=0;points=[[0,0.5],[1,0.5]];portConstraint=eastwest;rounded=0;strokeWidth=1;" parent="72" vertex="1">
                    <mxGeometry y="355" width="160" height="20" as="geometry"/>
                </mxCell>
                <mxCell id="346" value="- FALSE" style="text;html=1;strokeColor=none;fillColor=none;align=left;verticalAlign=middle;spacingLeft=4;spacingRight=4;overflow=hidden;rotatable=0;points=[[0,0.5],[1,0.5]];portConstraint=eastwest;rounded=0;strokeWidth=1;" parent="72" vertex="1">
                    <mxGeometry y="375" width="160" height="20" as="geometry"/>
                </mxCell>
                <mxCell id="88" value="TAG" style="swimlane;fontStyle=0;align=center;verticalAlign=top;childLayout=stackLayout;horizontal=1;startSize=55;horizontalStack=0;resizeParent=1;resizeParentMax=0;resizeLast=0;collapsible=0;marginBottom=0;html=1;rounded=0;strokeColor=default;strokeWidth=1;" parent="1" vertex="1">
                    <mxGeometry x="-80" width="160" height="115" as="geometry"/>
                </mxCell>
                <mxCell id="89" value="- 1" style="text;html=1;strokeColor=none;fillColor=none;align=left;verticalAlign=middle;spacingLeft=4;spacingRight=4;overflow=hidden;rotatable=0;points=[[0,0.5],[1,0.5]];portConstraint=eastwest;rounded=0;strokeWidth=1;" parent="88" vertex="1">
                    <mxGeometry y="55" width="160" height="20" as="geometry"/>
                </mxCell>
                <mxCell id="93" value="- &quot;Cachorro&quot;" style="text;html=1;strokeColor=none;fillColor=none;align=left;verticalAlign=middle;spacingLeft=4;spacingRight=4;overflow=hidden;rotatable=0;points=[[0,0.5],[1,0.5]];portConstraint=eastwest;rounded=0;strokeWidth=1;" parent="88" vertex="1">
                    <mxGeometry y="75" width="160" height="20" as="geometry"/>
                </mxCell>
                <mxCell id="92" value="- 01/01/2024" style="text;html=1;strokeColor=none;fillColor=none;align=left;verticalAlign=middle;spacingLeft=4;spacingRight=4;overflow=hidden;rotatable=0;points=[[0,0.5],[1,0.5]];portConstraint=eastwest;rounded=0;strokeWidth=1;" parent="88" vertex="1">
                    <mxGeometry y="95" width="160" height="20" as="geometry"/>
                </mxCell>
                <mxCell id="100" style="edgeStyle=none;html=1;entryX=0.5;entryY=0;entryDx=0;entryDy=0;strokeColor=default;endArrow=none;endFill=0;exitX=-0.002;exitY=0.16;exitDx=0;exitDy=0;exitPerimeter=0;" parent="1" source="37" target="72" edge="1">
                    <mxGeometry relative="1" as="geometry">
                        <mxPoint y="-360" as="sourcePoint"/>
                        <Array as="points">
                            <mxPoint x="-200" y="-520"/>
                        </Array>
                    </mxGeometry>
                </mxCell>
                <mxCell id="107" value="1" style="edgeLabel;html=1;align=center;verticalAlign=middle;resizable=0;points=[];" parent="100" vertex="1" connectable="0">
                    <mxGeometry x="-0.63" y="-1" relative="1" as="geometry">
                        <mxPoint x="44" as="offset"/>
                    </mxGeometry>
                </mxCell>
                <mxCell id="108" value="N" style="edgeLabel;html=1;align=center;verticalAlign=middle;resizable=0;points=[];" parent="100" vertex="1" connectable="0">
                    <mxGeometry x="0.8082" y="1" relative="1" as="geometry">
                        <mxPoint y="-6" as="offset"/>
                    </mxGeometry>
                </mxCell>
                <mxCell id="104" style="edgeStyle=none;html=1;entryX=1;entryY=0.5;entryDx=0;entryDy=0;strokeColor=default;endArrow=none;endFill=0;" parent="1" source="65" target="84" edge="1">
                    <mxGeometry relative="1" as="geometry"/>
                </mxCell>
                <mxCell id="111" value="1" style="edgeLabel;html=1;align=center;verticalAlign=middle;resizable=0;points=[];" parent="104" vertex="1" connectable="0">
                    <mxGeometry x="-0.7081" relative="1" as="geometry">
                        <mxPoint as="offset"/>
                    </mxGeometry>
                </mxCell>
                <mxCell id="112" value="N" style="edgeLabel;html=1;align=center;verticalAlign=middle;resizable=0;points=[];" parent="104" vertex="1" connectable="0">
                    <mxGeometry x="0.7544" y="3" relative="1" as="geometry">
                        <mxPoint as="offset"/>
                    </mxGeometry>
                </mxCell>
                <mxCell id="210" style="edgeStyle=none;html=1;entryX=-0.016;entryY=0.2;entryDx=0;entryDy=0;endArrow=none;endFill=0;exitX=0.749;exitY=1.16;exitDx=0;exitDy=0;exitPerimeter=0;entryPerimeter=0;" parent="1" source="346" target="89" edge="1">
                    <mxGeometry relative="1" as="geometry">
                        <mxPoint x="-161.27999999999975" y="42.24000000000001" as="sourcePoint"/>
                        <Array as="points">
                            <mxPoint x="-160" y="59"/>
                        </Array>
                        <mxPoint x="-79.83999999999969" y="200.0999999999999" as="targetPoint"/>
                    </mxGeometry>
                </mxCell>
                <mxCell id="211" value="N" style="edgeLabel;html=1;align=center;verticalAlign=middle;resizable=0;points=[];" parent="210" vertex="1" connectable="0">
                    <mxGeometry x="-0.8189" y="-2" relative="1" as="geometry">
                        <mxPoint y="9" as="offset"/>
                    </mxGeometry>
                </mxCell>
                <mxCell id="212" value="N" style="edgeLabel;html=1;align=center;verticalAlign=middle;resizable=0;points=[];" parent="210" vertex="1" connectable="0">
                    <mxGeometry x="0.7756" y="3" relative="1" as="geometry">
                        <mxPoint x="-11" as="offset"/>
                    </mxGeometry>
                </mxCell>
                <mxCell id="236" value="1" style="edgeStyle=none;html=1;entryX=0.248;entryY=1.25;entryDx=0;entryDy=0;entryPerimeter=0;exitX=0.994;exitY=0.239;exitDx=0;exitDy=0;exitPerimeter=0;endArrow=none;endFill=0;" parent="1" source="216" target="346" edge="1">
                    <mxGeometry x="-0.6839" y="-1" relative="1" as="geometry">
                        <mxPoint x="-240.3199999999997" y="45.1400000000001" as="targetPoint"/>
                        <Array as="points">
                            <mxPoint x="-240" y="100"/>
                        </Array>
                        <mxPoint as="offset"/>
                    </mxGeometry>
                </mxCell>
                <mxCell id="238" value="1" style="edgeLabel;html=1;align=center;verticalAlign=middle;resizable=0;points=[];" parent="236" vertex="1" connectable="0">
                    <mxGeometry x="0.8164" y="2" relative="1" as="geometry">
                        <mxPoint x="2" y="31" as="offset"/>
                    </mxGeometry>
                </mxCell>
                <mxCell id="213" value="DREAM_AUDIO" style="swimlane;fontStyle=0;align=center;verticalAlign=top;childLayout=stackLayout;horizontal=1;startSize=55;horizontalStack=0;resizeParent=1;resizeParentMax=0;resizeLast=0;collapsible=0;marginBottom=0;html=1;rounded=0;strokeColor=default;strokeWidth=1;" parent="1" vertex="1">
                    <mxGeometry x="-490" width="170" height="155" as="geometry"/>
                </mxCell>
                <mxCell id="214" value="- 1" style="text;html=1;strokeColor=none;fillColor=none;align=left;verticalAlign=middle;spacingLeft=4;spacingRight=4;overflow=hidden;rotatable=0;points=[[0,0.5],[1,0.5]];portConstraint=eastwest;rounded=0;strokeWidth=1;" parent="213" vertex="1">
                    <mxGeometry y="55" width="170" height="20" as="geometry"/>
                </mxCell>
                <mxCell id="215" value="- 02/01/2024" style="text;html=1;strokeColor=none;fillColor=none;align=left;verticalAlign=middle;spacingLeft=4;spacingRight=4;overflow=hidden;rotatable=0;points=[[0,0.5],[1,0.5]];portConstraint=eastwest;rounded=0;strokeWidth=1;" parent="213" vertex="1">
                    <mxGeometry y="75" width="170" height="20" as="geometry"/>
                </mxCell>
                <mxCell id="216" value="- null" style="text;html=1;strokeColor=none;fillColor=none;align=left;verticalAlign=middle;spacingLeft=4;spacingRight=4;overflow=hidden;rotatable=0;points=[[0,0.5],[1,0.5]];portConstraint=eastwest;rounded=0;strokeWidth=1;" parent="213" vertex="1">
                    <mxGeometry y="95" width="170" height="20" as="geometry"/>
                </mxCell>
                <mxCell id="230" value="- /files/02-01-2024.mp4" style="text;html=1;strokeColor=none;fillColor=none;align=left;verticalAlign=middle;spacingLeft=4;spacingRight=4;overflow=hidden;rotatable=0;points=[[0,0.5],[1,0.5]];portConstraint=eastwest;rounded=0;strokeWidth=1;" parent="213" vertex="1">
                    <mxGeometry y="115" width="170" height="20" as="geometry"/>
                </mxCell>
                <mxCell id="239" value="- &quot;Eu vi tal coisa...&quot;" style="text;html=1;strokeColor=none;fillColor=none;align=left;verticalAlign=middle;spacingLeft=4;spacingRight=4;overflow=hidden;rotatable=0;points=[[0,0.5],[1,0.5]];portConstraint=eastwest;rounded=0;strokeWidth=1;" parent="213" vertex="1">
                    <mxGeometry y="135" width="170" height="20" as="geometry"/>
                </mxCell>
                <mxCell id="240" value="DREAM_ANALYSIS" style="swimlane;fontStyle=0;align=center;verticalAlign=top;childLayout=stackLayout;horizontal=1;startSize=55;horizontalStack=0;resizeParent=1;resizeParentMax=0;resizeLast=0;collapsible=0;marginBottom=0;html=1;rounded=0;strokeColor=default;strokeWidth=1;" parent="1" vertex="1">
                    <mxGeometry x="480" y="-400" width="220" height="395" as="geometry"/>
                </mxCell>
                <mxCell id="241" value="- 1" style="text;html=1;strokeColor=none;fillColor=none;align=left;verticalAlign=middle;spacingLeft=4;spacingRight=4;overflow=hidden;rotatable=0;points=[[0,0.5],[1,0.5]];portConstraint=eastwest;rounded=0;strokeWidth=1;" parent="240" vertex="1">
                    <mxGeometry y="55" width="220" height="20" as="geometry"/>
                </mxCell>
                <mxCell id="244" value="- null" style="text;html=1;strokeColor=none;fillColor=none;align=left;verticalAlign=middle;spacingLeft=4;spacingRight=4;overflow=hidden;rotatable=0;points=[[0,0.5],[1,0.5]];portConstraint=eastwest;rounded=0;strokeWidth=1;" parent="240" vertex="1">
                    <mxGeometry y="75" width="220" height="20" as="geometry"/>
                </mxCell>
                <mxCell id="345" value="- TRUE" style="text;html=1;strokeColor=none;fillColor=none;align=left;verticalAlign=middle;spacingLeft=4;spacingRight=4;overflow=hidden;rotatable=0;points=[[0,0.5],[1,0.5]];portConstraint=eastwest;rounded=0;strokeWidth=1;" parent="240" vertex="1">
                    <mxGeometry y="95" width="220" height="20" as="geometry"/>
                </mxCell>
                <mxCell id="262" value="- 1" style="text;html=1;strokeColor=none;fillColor=none;align=left;verticalAlign=middle;spacingLeft=4;spacingRight=4;overflow=hidden;rotatable=0;points=[[0,0.5],[1,0.5]];portConstraint=eastwest;rounded=0;strokeWidth=1;" parent="240" vertex="1">
                    <mxGeometry y="115" width="220" height="20" as="geometry"/>
                </mxCell>
                <mxCell id="364" value="- 2024" style="text;html=1;strokeColor=none;fillColor=none;align=left;verticalAlign=middle;spacingLeft=4;spacingRight=4;overflow=hidden;rotatable=0;points=[[0,0.5],[1,0.5]];portConstraint=eastwest;rounded=0;strokeWidth=1;" vertex="1" parent="240">
                    <mxGeometry y="135" width="220" height="20" as="geometry"/>
                </mxCell>
                <mxCell id="261" value="- null" style="text;html=1;strokeColor=none;fillColor=none;align=left;verticalAlign=middle;spacingLeft=4;spacingRight=4;overflow=hidden;rotatable=0;points=[[0,0.5],[1,0.5]];portConstraint=eastwest;rounded=0;strokeWidth=1;" parent="240" vertex="1">
                    <mxGeometry y="155" width="220" height="20" as="geometry"/>
                </mxCell>
                <mxCell id="260" value="- null" style="text;html=1;strokeColor=none;fillColor=none;align=left;verticalAlign=middle;spacingLeft=4;spacingRight=4;overflow=hidden;rotatable=0;points=[[0,0.5],[1,0.5]];portConstraint=eastwest;rounded=0;strokeWidth=1;" parent="240" vertex="1">
                    <mxGeometry y="175" width="220" height="20" as="geometry"/>
                </mxCell>
                <mxCell id="265" value="- 1" style="text;html=1;strokeColor=none;fillColor=none;align=left;verticalAlign=middle;spacingLeft=4;spacingRight=4;overflow=hidden;rotatable=0;points=[[0,0.5],[1,0.5]];portConstraint=eastwest;rounded=0;strokeWidth=1;" parent="240" vertex="1">
                    <mxGeometry y="195" width="220" height="20" as="geometry"/>
                </mxCell>
                <mxCell id="303" value="- &quot;ameno&quot;" style="text;html=1;strokeColor=none;fillColor=none;align=left;verticalAlign=middle;spacingLeft=4;spacingRight=4;overflow=hidden;rotatable=0;points=[[0,0.5],[1,0.5]];portConstraint=eastwest;rounded=0;strokeWidth=1;" parent="240" vertex="1">
                    <mxGeometry y="215" width="220" height="20" as="geometry"/>
                </mxCell>
                <mxCell id="302" value="- &quot;dia&quot;" style="text;html=1;strokeColor=none;fillColor=none;align=left;verticalAlign=middle;spacingLeft=4;spacingRight=4;overflow=hidden;rotatable=0;points=[[0,0.5],[1,0.5]];portConstraint=eastwest;rounded=0;strokeWidth=1;" parent="240" vertex="1">
                    <mxGeometry y="235" width="220" height="20" as="geometry"/>
                </mxCell>
                <mxCell id="301" value="- &quot;medio&quot;" style="text;html=1;strokeColor=none;fillColor=none;align=left;verticalAlign=middle;spacingLeft=4;spacingRight=4;overflow=hidden;rotatable=0;points=[[0,0.5],[1,0.5]];portConstraint=eastwest;rounded=0;strokeWidth=1;" parent="240" vertex="1">
                    <mxGeometry y="255" width="220" height="20" as="geometry"/>
                </mxCell>
                <mxCell id="300" value="- &quot;parcialmente lucido&quot;" style="text;html=1;strokeColor=none;fillColor=none;align=left;verticalAlign=middle;spacingLeft=4;spacingRight=4;overflow=hidden;rotatable=0;points=[[0,0.5],[1,0.5]];portConstraint=eastwest;rounded=0;strokeWidth=1;" parent="240" vertex="1">
                    <mxGeometry y="275" width="220" height="20" as="geometry"/>
                </mxCell>
                <mxCell id="299" value="- &quot;sonho&quot;" style="text;html=1;strokeColor=none;fillColor=none;align=left;verticalAlign=middle;spacingLeft=4;spacingRight=4;overflow=hidden;rotatable=0;points=[[0,0.5],[1,0.5]];portConstraint=eastwest;rounded=0;strokeWidth=1;" parent="240" vertex="1">
                    <mxGeometry y="295" width="220" height="20" as="geometry"/>
                </mxCell>
                <mxCell id="264" value="- &quot;parcialmente real&quot;" style="text;html=1;strokeColor=none;fillColor=none;align=left;verticalAlign=middle;spacingLeft=4;spacingRight=4;overflow=hidden;rotatable=0;points=[[0,0.5],[1,0.5]];portConstraint=eastwest;rounded=0;strokeWidth=1;" parent="240" vertex="1">
                    <mxGeometry y="315" width="220" height="20" as="geometry"/>
                </mxCell>
                <mxCell id="263" value="- 3" style="text;html=1;strokeColor=none;fillColor=none;align=left;verticalAlign=middle;spacingLeft=4;spacingRight=4;overflow=hidden;rotatable=0;points=[[0,0.5],[1,0.5]];portConstraint=eastwest;rounded=0;strokeWidth=1;" parent="240" vertex="1">
                    <mxGeometry y="335" width="220" height="20" as="geometry"/>
                </mxCell>
                <mxCell id="310" value="- 6" style="text;html=1;strokeColor=none;fillColor=none;align=left;verticalAlign=middle;spacingLeft=4;spacingRight=4;overflow=hidden;rotatable=0;points=[[0,0.5],[1,0.5]];portConstraint=eastwest;rounded=0;strokeWidth=1;" parent="240" vertex="1">
                    <mxGeometry y="355" width="220" height="20" as="geometry"/>
                </mxCell>
                <mxCell id="309" value="- &quot;O senho mais estranho&quot;" style="text;html=1;strokeColor=none;fillColor=none;align=left;verticalAlign=middle;spacingLeft=4;spacingRight=4;overflow=hidden;rotatable=0;points=[[0,0.5],[1,0.5]];portConstraint=eastwest;rounded=0;strokeWidth=1;" parent="240" vertex="1">
                    <mxGeometry y="375" width="220" height="20" as="geometry"/>
                </mxCell>
                <mxCell id="313" style="edgeStyle=none;html=1;entryX=1.009;entryY=0.169;entryDx=0;entryDy=0;endArrow=none;endFill=0;exitX=0.5;exitY=0;exitDx=0;exitDy=0;entryPerimeter=0;" parent="1" source="266" target="37" edge="1">
                    <mxGeometry relative="1" as="geometry">
                        <Array as="points">
                            <mxPoint x="895" y="-519"/>
                        </Array>
                    </mxGeometry>
                </mxCell>
                <mxCell id="315" value="1" style="edgeLabel;html=1;align=center;verticalAlign=middle;resizable=0;points=[];" parent="313" vertex="1" connectable="0">
                    <mxGeometry x="0.8822" relative="1" as="geometry">
                        <mxPoint as="offset"/>
                    </mxGeometry>
                </mxCell>
                <mxCell id="316" value="N" style="edgeLabel;html=1;align=center;verticalAlign=middle;resizable=0;points=[];" parent="313" vertex="1" connectable="0">
                    <mxGeometry x="-0.9036" relative="1" as="geometry">
                        <mxPoint as="offset"/>
                    </mxGeometry>
                </mxCell>
                <mxCell id="266" value="SLEEP_ANALYSIS" style="swimlane;fontStyle=0;align=center;verticalAlign=top;childLayout=stackLayout;horizontal=1;startSize=55;horizontalStack=0;resizeParent=1;resizeParentMax=0;resizeLast=0;collapsible=0;marginBottom=0;html=1;rounded=0;strokeColor=default;strokeWidth=1;" parent="1" vertex="1">
                    <mxGeometry x="770" y="-400" width="250" height="495" as="geometry"/>
                </mxCell>
                <mxCell id="267" value="- 1" style="text;html=1;strokeColor=none;fillColor=none;align=left;verticalAlign=middle;spacingLeft=4;spacingRight=4;overflow=hidden;rotatable=0;points=[[0,0.5],[1,0.5]];portConstraint=eastwest;rounded=0;strokeWidth=1;" parent="266" vertex="1">
                    <mxGeometry y="55" width="250" height="20" as="geometry"/>
                </mxCell>
                <mxCell id="268" value="- null" style="text;html=1;strokeColor=none;fillColor=none;align=left;verticalAlign=middle;spacingLeft=4;spacingRight=4;overflow=hidden;rotatable=0;points=[[0,0.5],[1,0.5]];portConstraint=eastwest;rounded=0;strokeWidth=1;" parent="266" vertex="1">
                    <mxGeometry y="75" width="250" height="20" as="geometry"/>
                </mxCell>
                <mxCell id="344" value="- TRUE" style="text;html=1;strokeColor=none;fillColor=none;align=left;verticalAlign=middle;spacingLeft=4;spacingRight=4;overflow=hidden;rotatable=0;points=[[0,0.5],[1,0.5]];portConstraint=eastwest;rounded=0;strokeWidth=1;" parent="266" vertex="1">
                    <mxGeometry y="95" width="250" height="20" as="geometry"/>
                </mxCell>
                <mxCell id="269" value="- 1" style="text;html=1;strokeColor=none;fillColor=none;align=left;verticalAlign=middle;spacingLeft=4;spacingRight=4;overflow=hidden;rotatable=0;points=[[0,0.5],[1,0.5]];portConstraint=eastwest;rounded=0;strokeWidth=1;" parent="266" vertex="1">
                    <mxGeometry y="115" width="250" height="20" as="geometry"/>
                </mxCell>
                <mxCell id="365" value="- 2024" style="text;html=1;strokeColor=none;fillColor=none;align=left;verticalAlign=middle;spacingLeft=4;spacingRight=4;overflow=hidden;rotatable=0;points=[[0,0.5],[1,0.5]];portConstraint=eastwest;rounded=0;strokeWidth=1;" vertex="1" parent="266">
                    <mxGeometry y="135" width="250" height="20" as="geometry"/>
                </mxCell>
                <mxCell id="270" value="- null" style="text;html=1;strokeColor=none;fillColor=none;align=left;verticalAlign=middle;spacingLeft=4;spacingRight=4;overflow=hidden;rotatable=0;points=[[0,0.5],[1,0.5]];portConstraint=eastwest;rounded=0;strokeWidth=1;" parent="266" vertex="1">
                    <mxGeometry y="155" width="250" height="20" as="geometry"/>
                </mxCell>
                <mxCell id="271" value="- null" style="text;html=1;strokeColor=none;fillColor=none;align=left;verticalAlign=middle;spacingLeft=4;spacingRight=4;overflow=hidden;rotatable=0;points=[[0,0.5],[1,0.5]];portConstraint=eastwest;rounded=0;strokeWidth=1;" parent="266" vertex="1">
                    <mxGeometry y="175" width="250" height="20" as="geometry"/>
                </mxCell>
                <mxCell id="272" value="- 13" style="text;html=1;strokeColor=none;fillColor=none;align=left;verticalAlign=middle;spacingLeft=4;spacingRight=4;overflow=hidden;rotatable=0;points=[[0,0.5],[1,0.5]];portConstraint=eastwest;rounded=0;strokeWidth=1;" parent="266" vertex="1">
                    <mxGeometry y="195" width="250" height="20" as="geometry"/>
                </mxCell>
                <mxCell id="273" value="- 60" style="text;html=1;strokeColor=none;fillColor=none;align=left;verticalAlign=middle;spacingLeft=4;spacingRight=4;overflow=hidden;rotatable=0;points=[[0,0.5],[1,0.5]];portConstraint=eastwest;rounded=0;strokeWidth=1;" parent="266" vertex="1">
                    <mxGeometry y="215" width="250" height="20" as="geometry"/>
                </mxCell>
                <mxCell id="274" value="- 40" style="text;html=1;strokeColor=none;fillColor=none;align=left;verticalAlign=middle;spacingLeft=4;spacingRight=4;overflow=hidden;rotatable=0;points=[[0,0.5],[1,0.5]];portConstraint=eastwest;rounded=0;strokeWidth=1;" parent="266" vertex="1">
                    <mxGeometry y="235" width="250" height="20" as="geometry"/>
                </mxCell>
                <mxCell id="280" value="- 60" style="text;html=1;strokeColor=none;fillColor=none;align=left;verticalAlign=middle;spacingLeft=4;spacingRight=4;overflow=hidden;rotatable=0;points=[[0,0.5],[1,0.5]];portConstraint=eastwest;rounded=0;strokeWidth=1;" parent="266" vertex="1">
                    <mxGeometry y="255" width="250" height="20" as="geometry"/>
                </mxCell>
                <mxCell id="281" value="- 40" style="text;html=1;strokeColor=none;fillColor=none;align=left;verticalAlign=middle;spacingLeft=4;spacingRight=4;overflow=hidden;rotatable=0;points=[[0,0.5],[1,0.5]];portConstraint=eastwest;rounded=0;strokeWidth=1;" parent="266" vertex="1">
                    <mxGeometry y="275" width="250" height="20" as="geometry"/>
                </mxCell>
                <mxCell id="279" value="- &quot;calm&quot;" style="text;html=1;strokeColor=none;fillColor=none;align=left;verticalAlign=middle;spacingLeft=4;spacingRight=4;overflow=hidden;rotatable=0;points=[[0,0.5],[1,0.5]];portConstraint=eastwest;rounded=0;strokeWidth=1;" parent="266" vertex="1">
                    <mxGeometry y="295" width="250" height="20" as="geometry"/>
                </mxCell>
                <mxCell id="285" value="- &quot;anxiety&quot;" style="text;html=1;strokeColor=none;fillColor=none;align=left;verticalAlign=middle;spacingLeft=4;spacingRight=4;overflow=hidden;rotatable=0;points=[[0,0.5],[1,0.5]];portConstraint=eastwest;rounded=0;strokeWidth=1;" parent="266" vertex="1">
                    <mxGeometry y="315" width="250" height="20" as="geometry"/>
                </mxCell>
                <mxCell id="284" value="- &quot;calm&quot;" style="text;html=1;strokeColor=none;fillColor=none;align=left;verticalAlign=middle;spacingLeft=4;spacingRight=4;overflow=hidden;rotatable=0;points=[[0,0.5],[1,0.5]];portConstraint=eastwest;rounded=0;strokeWidth=1;" parent="266" vertex="1">
                    <mxGeometry y="335" width="250" height="20" as="geometry"/>
                </mxCell>
                <mxCell id="283" value="- &quot;happiness&quot;" style="text;html=1;strokeColor=none;fillColor=none;align=left;verticalAlign=middle;spacingLeft=4;spacingRight=4;overflow=hidden;rotatable=0;points=[[0,0.5],[1,0.5]];portConstraint=eastwest;rounded=0;strokeWidth=1;" parent="266" vertex="1">
                    <mxGeometry y="355" width="250" height="20" as="geometry"/>
                </mxCell>
                <mxCell id="289" value="- &quot;ronco&quot;" style="text;html=1;strokeColor=none;fillColor=none;align=left;verticalAlign=middle;spacingLeft=4;spacingRight=4;overflow=hidden;rotatable=0;points=[[0,0.5],[1,0.5]];portConstraint=eastwest;rounded=0;strokeWidth=1;" parent="266" vertex="1">
                    <mxGeometry y="375" width="250" height="20" as="geometry"/>
                </mxCell>
                <mxCell id="288" value="- 6" style="text;html=1;strokeColor=none;fillColor=none;align=left;verticalAlign=middle;spacingLeft=4;spacingRight=4;overflow=hidden;rotatable=0;points=[[0,0.5],[1,0.5]];portConstraint=eastwest;rounded=0;strokeWidth=1;" parent="266" vertex="1">
                    <mxGeometry y="395" width="250" height="20" as="geometry"/>
                </mxCell>
                <mxCell id="291" value="- 9" style="text;html=1;strokeColor=none;fillColor=none;align=left;verticalAlign=middle;spacingLeft=4;spacingRight=4;overflow=hidden;rotatable=0;points=[[0,0.5],[1,0.5]];portConstraint=eastwest;rounded=0;strokeWidth=1;" parent="266" vertex="1">
                    <mxGeometry y="415" width="250" height="20" as="geometry"/>
                </mxCell>
                <mxCell id="287" value="- 4" style="text;html=1;strokeColor=none;fillColor=none;align=left;verticalAlign=middle;spacingLeft=4;spacingRight=4;overflow=hidden;rotatable=0;points=[[0,0.5],[1,0.5]];portConstraint=eastwest;rounded=0;strokeWidth=1;" parent="266" vertex="1">
                    <mxGeometry y="435" width="250" height="20" as="geometry"/>
                </mxCell>
                <mxCell id="290" value="- 2,6" style="text;html=1;strokeColor=none;fillColor=none;align=left;verticalAlign=middle;spacingLeft=4;spacingRight=4;overflow=hidden;rotatable=0;points=[[0,0.5],[1,0.5]];portConstraint=eastwest;rounded=0;strokeWidth=1;" parent="266" vertex="1">
                    <mxGeometry y="455" width="250" height="20" as="geometry"/>
                </mxCell>
                <mxCell id="295" value="- 02/01/2024" style="text;html=1;strokeColor=none;fillColor=none;align=left;verticalAlign=middle;spacingLeft=4;spacingRight=4;overflow=hidden;rotatable=0;points=[[0,0.5],[1,0.5]];portConstraint=eastwest;rounded=0;strokeWidth=1;" parent="266" vertex="1">
                    <mxGeometry y="475" width="250" height="20" as="geometry"/>
                </mxCell>
                <mxCell id="311" value="" style="edgeStyle=none;html=1;entryX=0.5;entryY=0;entryDx=0;entryDy=0;endArrow=none;endFill=0;exitX=1.001;exitY=0.75;exitDx=0;exitDy=0;exitPerimeter=0;" parent="1" source="53" target="240" edge="1">
                    <mxGeometry relative="1" as="geometry">
                        <Array as="points">
                            <mxPoint x="590" y="-460"/>
                        </Array>
                    </mxGeometry>
                </mxCell>
                <mxCell id="314" value="1" style="edgeLabel;html=1;align=center;verticalAlign=middle;resizable=0;points=[];" parent="311" vertex="1" connectable="0">
                    <mxGeometry x="-0.7051" y="1" relative="1" as="geometry">
                        <mxPoint as="offset"/>
                    </mxGeometry>
                </mxCell>
                <mxCell id="317" value="N" style="edgeLabel;html=1;align=center;verticalAlign=middle;resizable=0;points=[];" parent="311" vertex="1" connectable="0">
                    <mxGeometry x="0.7648" y="1" relative="1" as="geometry">
                        <mxPoint as="offset"/>
                    </mxGeometry>
                </mxCell>
                <mxCell id="347" value="PARAMS" style="swimlane;fontStyle=0;align=center;verticalAlign=top;childLayout=stackLayout;horizontal=1;startSize=55;horizontalStack=0;resizeParent=1;resizeParentMax=0;resizeLast=0;collapsible=0;marginBottom=0;html=1;rounded=0;strokeColor=default;strokeWidth=1;" parent="1" vertex="1">
                    <mxGeometry x="235" width="160" height="155" as="geometry"/>
                </mxCell>
                <mxCell id="348" value="- 1" style="text;html=1;strokeColor=none;fillColor=none;align=left;verticalAlign=middle;spacingLeft=4;spacingRight=4;overflow=hidden;rotatable=0;points=[[0,0.5],[1,0.5]];portConstraint=eastwest;rounded=0;strokeWidth=1;" parent="347" vertex="1">
                    <mxGeometry y="55" width="160" height="20" as="geometry"/>
                </mxCell>
                <mxCell id="350" value="- TRUE" style="text;html=1;strokeColor=none;fillColor=none;align=left;verticalAlign=middle;spacingLeft=4;spacingRight=4;overflow=hidden;rotatable=0;points=[[0,0.5],[1,0.5]];portConstraint=eastwest;rounded=0;strokeWidth=1;" parent="347" vertex="1">
                    <mxGeometry y="75" width="160" height="20" as="geometry"/>
                </mxCell>
                <mxCell id="351" value="- 1" style="text;html=1;strokeColor=none;fillColor=none;align=left;verticalAlign=middle;spacingLeft=4;spacingRight=4;overflow=hidden;rotatable=0;points=[[0,0.5],[1,0.5]];portConstraint=eastwest;rounded=0;strokeWidth=1;" parent="347" vertex="1">
                    <mxGeometry y="95" width="160" height="20" as="geometry"/>
                </mxCell>
                <mxCell id="363" value="- fulano@gmail.com" style="text;html=1;strokeColor=none;fillColor=none;align=left;verticalAlign=middle;spacingLeft=4;spacingRight=4;overflow=hidden;rotatable=0;points=[[0,0.5],[1,0.5]];portConstraint=eastwest;rounded=0;strokeWidth=1;" parent="347" vertex="1">
                    <mxGeometry y="115" width="160" height="20" as="geometry"/>
                </mxCell>
                <mxCell id="362" value="-&amp;nbsp;e8d95a51f3af4a3b134bf" style="text;html=1;strokeColor=none;fillColor=none;align=left;verticalAlign=middle;spacingLeft=4;spacingRight=4;overflow=hidden;rotatable=0;points=[[0,0.5],[1,0.5]];portConstraint=eastwest;rounded=0;strokeWidth=1;" parent="347" vertex="1">
                    <mxGeometry y="135" width="160" height="20" as="geometry"/>
                </mxCell>
            </root>
        </mxGraphModel>
    </diagram>
</mxfile>